# xmcd
#
# Track frame offsets: 
#        150
#        20866
#        35800
#        47586
#        56293
#        62954
#        70867
#        89563
#
# Disc length: 1394 seconds
#
# Revision: 0
# Processed by: cddbd v1.5.1PL0 Copyright (c) Steve Scherf et al.
# Submitted via: ExactAudioCopy v0.95a5
#
DISCID=72057008
DTITLE=Mark Knopfler - Wag The Dog
DYEAR=2000
DGENRE=Beat
TTITLE0=Wag The Dog
TTITLE1=Working On It
TTITLE2=In The Heartland
TTITLE3=An American Hero
TTITLE4=Just Instinct
TTITLE5=Stretching Out
TTITLE6=Drooling National
TTITLE7=We´Re Going To War
EXTD=
EXTT0=
EXTT1=
EXTT2=
EXTT3=
EXTT4=
EXTT5=
EXTT6=
EXTT7=
PLAYORDER=
